<?xml version="1.0" encoding="utf-8"?>
<svg width="930px" height="930px" viewBox="0 0 930 930" version="1.1" xmlns:xlink="http://www.w3.org/1999/xlink" xmlns="http://www.w3.org/2000/svg">
  <g id="Group-2">
    <path d="M69.999 300L764.104 300Q765.822 300 767.539 300.084Q769.255 300.169 770.965 300.337Q772.675 300.505 774.375 300.758Q776.075 301.01 777.76 301.345Q779.445 301.68 781.112 302.098Q782.779 302.515 784.424 303.014Q786.068 303.513 787.686 304.092Q789.304 304.671 790.891 305.328Q792.479 305.986 794.032 306.721Q795.586 307.455 797.101 308.265Q798.617 309.075 800.091 309.959Q801.565 310.842 802.993 311.797Q804.422 312.752 805.802 313.775Q807.183 314.799 808.511 315.889Q809.839 316.979 811.112 318.133Q812.386 319.287 813.601 320.502Q814.816 321.717 815.97 322.991Q817.124 324.264 818.214 325.592Q819.304 326.92 820.328 328.301Q821.351 329.681 822.306 331.11Q823.261 332.538 824.144 334.012Q825.028 335.486 825.838 337.002Q826.648 338.517 827.382 340.071Q828.117 341.624 828.775 343.212Q829.432 344.799 830.011 346.417Q830.59 348.035 831.089 349.679Q831.588 351.324 832.005 352.991Q832.423 354.658 832.758 356.343Q833.093 358.028 833.345 359.728Q833.598 361.428 833.766 363.138Q833.935 364.848 834.019 366.564Q834.103 368.281 834.103 369.999L834.103 563.001Q834.103 564.719 834.019 566.436Q833.935 568.152 833.766 569.862Q833.598 571.572 833.345 573.272Q833.093 574.972 832.758 576.657Q832.423 578.342 832.005 580.009Q831.588 581.676 831.089 583.321Q830.59 584.965 830.011 586.583Q829.432 588.201 828.775 589.788Q828.117 591.376 827.382 592.929Q826.648 594.483 825.838 595.998Q825.028 597.514 824.144 598.988Q823.261 600.461 822.306 601.89Q821.351 603.319 820.328 604.699Q819.304 606.08 818.214 607.408Q817.124 608.736 815.97 610.009Q814.816 611.283 813.601 612.498Q812.386 613.713 811.112 614.867Q809.839 616.021 808.511 617.111Q807.183 618.201 805.802 619.225Q804.422 620.248 802.993 621.203Q801.565 622.158 800.091 623.041Q798.617 623.924 797.101 624.735Q795.586 625.545 794.032 626.279Q792.479 627.014 790.891 627.672Q789.304 628.329 787.686 628.908Q786.068 629.487 784.424 629.986Q782.779 630.485 781.112 630.902Q779.445 631.32 777.76 631.655Q776.075 631.99 774.375 632.242Q772.675 632.494 770.965 632.663Q769.255 632.831 767.539 632.916Q765.822 633 764.104 633L69.999 633Q68.2806 633 66.5643 632.916Q64.848 632.831 63.1379 632.663Q61.4278 632.494 59.728 632.242Q58.0282 631.99 56.3429 631.655Q54.6575 631.32 52.9906 630.902Q51.3237 630.485 49.6794 629.986Q48.035 629.487 46.417 628.908Q44.7991 628.329 43.2115 627.672Q41.624 627.014 40.0706 626.279Q38.5172 625.545 37.0017 624.734Q35.4862 623.924 34.0123 623.041Q32.5384 622.158 31.1096 621.203Q29.6809 620.248 28.3006 619.225Q26.9204 618.201 25.5921 617.111Q24.2638 616.021 22.9905 614.867Q21.7173 613.713 20.5022 612.498Q19.2872 611.283 18.1332 610.009Q16.9792 608.736 15.889 607.408Q14.7989 606.08 13.7753 604.699Q12.7516 603.319 11.797 601.89Q10.8423 600.461 9.95885 598.988Q9.07543 597.514 8.26539 595.998Q7.45535 594.483 6.72065 592.929Q5.98595 591.376 5.32836 589.788Q4.67076 588.201 4.09186 586.583Q3.51295 584.965 3.01413 583.321Q2.51531 581.676 2.09778 580.009Q1.68025 578.342 1.34501 576.657Q1.00977 574.972 0.757633 573.272Q0.505495 571.572 0.337064 569.862Q0.168634 568.152 0.0843168 566.436Q0 564.719 0 563.001L0 369.999Q0 368.281 0.0843168 366.564Q0.168634 364.848 0.337064 363.138Q0.505495 361.428 0.757633 359.728Q1.00977 358.028 1.34501 356.343Q1.68025 354.658 2.09778 352.991Q2.51531 351.324 3.01413 349.679Q3.51295 348.035 4.09186 346.417Q4.67076 344.799 5.32836 343.212Q5.98595 341.624 6.72065 340.071Q7.45535 338.517 8.26539 337.002Q9.07543 335.486 9.95885 334.012Q10.8423 332.538 11.797 331.11Q12.7516 329.681 13.7753 328.301Q14.7989 326.92 15.889 325.592Q16.9792 324.264 18.1332 322.991Q19.2872 321.717 20.5022 320.502Q21.7173 319.287 22.9905 318.133Q24.2638 316.979 25.5921 315.889Q26.9204 314.799 28.3006 313.775Q29.6809 312.752 31.1096 311.797Q32.5384 310.842 34.0123 309.959Q35.4862 309.075 37.0017 308.265Q38.5172 307.455 40.0706 306.721Q41.624 305.986 43.2115 305.328Q44.7991 304.671 46.417 304.092Q48.035 303.513 49.6794 303.014Q51.3237 302.515 52.9906 302.098Q54.6575 301.68 56.3429 301.345Q58.0282 301.01 59.728 300.758Q61.4278 300.505 63.1379 300.337Q64.848 300.169 66.5643 300.084Q68.2806 300 69.999 300Z" id="Rectangle-4" fill="#8FDE6E" fill-rule="evenodd" stroke="none" />
    <path d="M364.682 0L563.32 0Q565.038 0 566.755 0.0843168Q568.471 0.168634 570.181 0.337064Q571.891 0.505495 573.591 0.757633Q575.291 1.00977 576.976 1.34501Q578.661 1.68025 580.328 2.09778Q581.995 2.51531 583.64 3.01413Q585.284 3.51295 586.902 4.09186Q588.52 4.67076 590.107 5.32836Q591.695 5.98595 593.248 6.72065Q594.802 7.45535 596.317 8.26539Q597.833 9.07543 599.307 9.95885Q600.781 10.8423 602.209 11.797Q603.638 12.7516 605.018 13.7753Q606.398 14.7989 607.727 15.889Q609.055 16.9792 610.328 18.1332Q611.602 19.2872 612.817 20.5022Q614.032 21.7173 615.186 22.9905Q616.34 24.2638 617.43 25.5921Q618.52 26.9204 619.544 28.3006Q620.567 29.6809 621.522 31.1096Q622.477 32.5384 623.36 34.0123Q624.243 35.4862 625.054 37.0017Q625.864 38.5172 626.598 40.0706Q627.333 41.624 627.991 43.2115Q628.648 44.7991 629.227 46.417Q629.806 48.035 630.305 49.6794Q630.804 51.3237 631.221 52.9906Q631.639 54.6575 631.974 56.3429Q632.309 58.0282 632.561 59.728Q632.813 61.4278 632.982 63.1379Q633.15 64.848 633.235 66.5643Q633.319 68.2806 633.319 69.999L633.319 860.001Q633.319 861.719 633.235 863.436Q633.15 865.152 632.982 866.862Q632.813 868.572 632.561 870.272Q632.309 871.972 631.974 873.657Q631.639 875.342 631.221 877.009Q630.804 878.676 630.305 880.321Q629.806 881.965 629.227 883.583Q628.648 885.201 627.991 886.788Q627.333 888.376 626.598 889.929Q625.864 891.483 625.054 892.998Q624.243 894.514 623.36 895.988Q622.477 897.461 621.522 898.89Q620.567 900.319 619.544 901.699Q618.52 903.08 617.43 904.408Q616.34 905.736 615.186 907.009Q614.032 908.283 612.817 909.498Q611.602 910.713 610.328 911.867Q609.055 913.021 607.727 914.111Q606.398 915.201 605.018 916.225Q603.638 917.248 602.209 918.203Q600.781 919.158 599.307 920.041Q597.833 920.924 596.317 921.735Q594.802 922.545 593.248 923.279Q591.695 924.014 590.107 924.672Q588.52 925.329 586.902 925.908Q585.284 926.487 583.64 926.986Q581.995 927.485 580.328 927.902Q578.661 928.32 576.976 928.655Q575.291 928.99 573.591 929.242Q571.891 929.494 570.181 929.663Q568.471 929.831 566.755 929.916Q565.038 930 563.32 930L364.682 930Q362.964 930 361.247 929.916Q359.531 929.831 357.821 929.663Q356.111 929.494 354.411 929.242Q352.711 928.99 351.026 928.655Q349.341 928.32 347.674 927.902Q346.007 927.485 344.362 926.986Q342.718 926.487 341.1 925.908Q339.482 925.329 337.895 924.672Q336.307 924.014 334.754 923.279Q333.2 922.545 331.685 921.735Q330.169 920.924 328.695 920.041Q327.221 919.158 325.793 918.203Q324.364 917.248 322.984 916.225Q321.604 915.201 320.275 914.111Q318.947 913.021 317.674 911.867Q316.4 910.713 315.185 909.498Q313.97 908.283 312.816 907.009Q311.662 905.736 310.572 904.408Q309.482 903.08 308.458 901.699Q307.435 900.319 306.48 898.89Q305.525 897.461 304.642 895.988Q303.758 894.514 302.948 892.998Q302.138 891.483 301.404 889.929Q300.669 888.376 300.011 886.788Q299.354 885.201 298.775 883.583Q298.196 881.965 297.697 880.321Q297.198 878.676 296.781 877.009Q296.363 875.342 296.028 873.657Q295.693 871.972 295.441 870.272Q295.189 868.572 295.02 866.862Q294.852 865.152 294.767 863.436Q294.683 861.719 294.683 860.001L294.683 69.999Q294.683 68.2806 294.767 66.5643Q294.852 64.848 295.02 63.1379Q295.189 61.4278 295.441 59.728Q295.693 58.0282 296.028 56.3429Q296.363 54.6575 296.781 52.9906Q297.198 51.3237 297.697 49.6794Q298.196 48.035 298.775 46.417Q299.354 44.7991 300.011 43.2115Q300.669 41.624 301.404 40.0706Q302.138 38.5172 302.949 37.0017Q303.759 35.4862 304.642 34.0123Q305.525 32.5384 306.48 31.1096Q307.435 29.6809 308.458 28.3006Q309.482 26.9204 310.572 25.5921Q311.662 24.2638 312.816 22.9905Q313.97 21.7173 315.185 20.5022Q316.4 19.2872 317.674 18.1332Q318.947 16.9792 320.275 15.889Q321.604 14.7989 322.984 13.7753Q324.364 12.7516 325.793 11.797Q327.221 10.8423 328.695 9.95885Q330.169 9.07543 331.685 8.26539Q333.2 7.45535 334.754 6.72065Q336.307 5.98595 337.895 5.32836Q339.482 4.67076 341.1 4.09186Q342.718 3.51295 344.362 3.01413Q346.007 2.51531 347.674 2.09778Q349.341 1.68025 351.026 1.34501Q352.711 1.00977 354.411 0.757633Q356.111 0.505495 357.821 0.337064Q359.531 0.168634 361.247 0.0843168Q362.964 0 364.682 0Z" id="Rectangle-3" fill="#8FDE6E" fill-rule="evenodd" stroke="none" />
    <path d="M362.684 296.815L860.001 296.815Q861.719 296.815 863.436 296.9Q865.152 296.984 866.862 297.153Q868.572 297.321 870.272 297.573Q871.972 297.825 873.657 298.16Q875.342 298.496 877.009 298.913Q878.676 299.331 880.321 299.83Q881.965 300.328 883.583 300.907Q885.201 301.486 886.788 302.144Q888.376 302.801 889.929 303.536Q891.483 304.271 892.998 305.081Q894.514 305.891 895.988 306.774Q897.461 307.658 898.89 308.612Q900.319 309.567 901.699 310.591Q903.08 311.614 904.408 312.705Q905.736 313.795 907.009 314.949Q908.283 316.103 909.498 317.318Q910.713 318.533 911.867 319.806Q913.021 321.079 914.111 322.408Q915.201 323.736 916.225 325.116Q917.248 326.496 918.203 327.925Q919.158 329.354 920.041 330.828Q920.924 332.302 921.735 333.817Q922.545 335.333 923.279 336.886Q924.014 338.439 924.672 340.027Q925.329 341.615 925.908 343.232Q926.487 344.85 926.986 346.495Q927.485 348.139 927.902 349.806Q928.32 351.473 928.655 353.158Q928.99 354.844 929.242 356.543Q929.494 358.243 929.663 359.953Q929.831 361.663 929.916 363.38Q930 365.096 930 366.814L930 564.816Q930 566.535 929.916 568.251Q929.831 569.967 929.663 571.678Q929.494 573.388 929.242 575.087Q928.99 576.787 928.655 578.472Q928.32 580.158 927.902 581.825Q927.485 583.492 926.986 585.136Q926.487 586.78 925.908 588.398Q925.329 590.016 924.672 591.604Q924.014 593.191 923.279 594.745Q922.545 596.298 921.735 597.814Q920.924 599.329 920.041 600.803Q919.158 602.277 918.203 603.706Q917.248 605.134 916.225 606.515Q915.201 607.895 914.111 609.223Q913.021 610.552 911.867 611.825Q910.713 613.098 909.498 614.313Q908.283 615.528 907.009 616.682Q905.736 617.836 904.408 618.926Q903.08 620.016 901.699 621.04Q900.319 622.064 898.89 623.018Q897.461 623.973 895.988 624.857Q894.514 625.74 892.998 626.55Q891.483 627.36 889.929 628.095Q888.376 628.829 886.788 629.487Q885.201 630.145 883.583 630.724Q881.965 631.302 880.321 631.801Q878.676 632.3 877.009 632.718Q875.342 633.135 873.657 633.47Q871.972 633.806 870.272 634.058Q868.572 634.31 866.862 634.478Q865.152 634.647 863.436 634.731Q861.719 634.815 860.001 634.815L432.283 634.815L326.025 729.962Q325.757 730.202 325.481 730.432Q325.205 730.662 324.92 730.882Q324.636 731.102 324.344 731.311Q324.052 731.521 323.752 731.72Q323.453 731.919 323.146 732.107Q322.84 732.295 322.527 732.472Q322.214 732.649 321.895 732.815Q321.576 732.98 321.251 733.134Q320.926 733.288 320.595 733.431Q320.265 733.573 319.93 733.703Q319.595 733.833 319.255 733.952Q318.916 734.07 318.572 734.176Q318.229 734.281 317.881 734.375Q317.534 734.468 317.184 734.549Q316.833 734.63 316.48 734.698Q316.127 734.767 315.772 734.822Q315.417 734.878 315.06 734.92Q314.703 734.963 314.344 734.993Q313.986 735.023 313.627 735.04Q313.268 735.057 312.908 735.061Q312.549 735.065 312.189 735.056Q311.83 735.047 311.471 735.025Q311.112 735.003 310.754 734.969Q310.396 734.934 310.04 734.886Q309.683 734.839 309.329 734.778Q308.975 734.718 308.622 734.645Q308.27 734.572 307.921 734.486Q307.572 734.401 307.226 734.303Q306.88 734.205 306.538 734.094Q306.196 733.984 305.858 733.861Q305.52 733.738 305.187 733.603Q304.853 733.468 304.525 733.322Q304.197 733.175 303.874 733.017Q303.551 732.858 303.234 732.688Q302.917 732.518 302.607 732.337Q302.296 732.156 301.992 731.964Q301.688 731.772 301.392 731.568Q301.095 731.366 300.806 731.152Q300.516 730.938 300.235 730.714Q299.954 730.491 299.68 730.257Q299.407 730.023 299.143 729.78Q298.878 729.536 298.622 729.283Q298.367 729.03 298.12 728.769Q297.874 728.507 297.637 728.236Q297.4 727.966 297.173 727.687Q296.946 727.408 296.729 727.121Q296.513 726.834 296.306 726.54Q296.1 726.245 295.904 725.943Q295.709 725.642 295.524 725.333Q295.339 725.025 295.166 724.71Q294.992 724.395 294.83 724.074Q294.668 723.753 294.518 723.426Q294.368 723.1 294.229 722.768Q294.091 722.436 293.964 722.099Q293.838 721.763 293.723 721.422Q293.609 721.081 293.507 720.736Q293.405 720.392 293.315 720.043Q293.226 719.695 293.149 719.344Q293.072 718.993 293.008 718.639Q292.943 718.285 292.892 717.929Q292.84 717.573 292.802 717.216Q292.763 716.858 292.737 716.5Q292.711 716.141 292.698 715.782Q292.685 715.422 292.685 715.063L292.685 366.814Q292.685 365.096 292.77 363.38Q292.854 361.663 293.022 359.953Q293.191 358.243 293.443 356.543Q293.695 354.844 294.03 353.158Q294.366 351.473 294.783 349.806Q295.201 348.139 295.699 346.495Q296.198 344.85 296.777 343.232Q297.356 341.615 298.014 340.027Q298.671 338.439 299.406 336.886Q300.141 335.333 300.951 333.817Q301.761 332.302 302.644 330.828Q303.528 329.354 304.482 327.925Q305.437 326.496 306.461 325.116Q307.484 323.736 308.574 322.408Q309.664 321.079 310.818 319.806Q311.972 318.533 313.188 317.318Q314.403 316.103 315.676 314.949Q316.949 313.795 318.277 312.704Q319.606 311.614 320.986 310.591Q322.366 309.567 323.795 308.612Q325.224 307.658 326.698 306.774Q328.172 305.891 329.687 305.081Q331.202 304.271 332.756 303.536Q334.309 302.801 335.897 302.144Q337.484 301.486 339.102 300.907Q340.72 300.328 342.365 299.83Q344.009 299.331 345.676 298.913Q347.343 298.496 349.028 298.16Q350.713 297.825 352.413 297.573Q354.113 297.321 355.823 297.153Q357.533 296.984 359.25 296.9Q360.966 296.815 362.684 296.815ZM468.047 430.815C450.338 430.815 435.981 445.142 435.981 462.815C435.981 480.489 450.338 494.815 468.047 494.815C485.757 494.815 500.113 480.489 500.113 462.815C500.113 445.142 485.757 430.815 468.047 430.815ZM580.278 462.815C580.278 445.142 594.635 430.815 612.345 430.815C630.054 430.815 644.411 445.142 644.411 462.815C644.411 480.489 630.054 494.815 612.345 494.815C594.635 494.815 580.278 480.489 580.278 462.815ZM754.638 430.815C736.928 430.815 722.572 445.142 722.572 462.815C722.572 480.489 736.928 494.815 754.638 494.815C772.348 494.815 786.704 480.489 786.704 462.815C786.704 445.142 772.348 430.815 754.638 430.815Z" id="Group-Difference-Difference-Difference" fill="#373435" fill-rule="evenodd" stroke="none" />
  </g>
</svg>