<?xml version="1.0" encoding="utf-8"?>
<svg width="1265px" height="1282.9999px" viewBox="0 0 1265 1282.9999" version="1.1" xmlns:xlink="http://www.w3.org/1999/xlink" xmlns="http://www.w3.org/2000/svg">
  <g id="Group-2">
    <g id="Group" transform="translate(167 0)">
      <path d="M69.999 296.8L861.001 296.8Q862.719 296.8 864.436 296.884Q866.152 296.969 867.862 297.137Q869.572 297.305 871.272 297.558Q872.972 297.81 874.657 298.145Q876.342 298.48 878.009 298.898Q879.676 299.315 881.321 299.814Q882.965 300.313 884.583 300.892Q886.201 301.471 887.788 302.128Q889.376 302.786 890.929 303.521Q892.483 304.255 893.998 305.065Q895.514 305.875 896.988 306.759Q898.461 307.642 899.89 308.597Q901.319 309.552 902.699 310.575Q904.08 311.599 905.408 312.689Q906.736 313.779 908.009 314.933Q909.283 316.087 910.498 317.302Q911.713 318.517 912.867 319.79Q914.021 321.064 915.111 322.392Q916.201 323.72 917.225 325.101Q918.248 326.481 919.203 327.91Q920.158 329.338 921.041 330.812Q921.925 332.286 922.735 333.802Q923.545 335.317 924.279 336.871Q925.014 338.424 925.672 340.011Q926.329 341.599 926.908 343.217Q927.487 344.835 927.986 346.479Q928.485 348.124 928.902 349.791Q929.32 351.457 929.655 353.143Q929.99 354.828 930.242 356.528Q930.495 358.228 930.663 359.938Q930.831 361.648 930.916 363.364Q931 365.081 931 366.799L931 564.001Q931 565.719 930.916 567.436Q930.831 569.152 930.663 570.862Q930.495 572.572 930.242 574.272Q929.99 575.972 929.655 577.657Q929.32 579.342 928.902 581.009Q928.485 582.676 927.986 584.321Q927.487 585.965 926.908 587.583Q926.329 589.201 925.672 590.788Q925.014 592.376 924.279 593.929Q923.545 595.483 922.735 596.998Q921.924 598.514 921.041 599.988Q920.158 601.461 919.203 602.89Q918.248 604.319 917.225 605.699Q916.201 607.079 915.111 608.408Q914.021 609.736 912.867 611.009Q911.713 612.283 910.498 613.498Q909.283 614.713 908.009 615.867Q906.736 617.021 905.408 618.111Q904.08 619.201 902.699 620.225Q901.319 621.248 899.89 622.203Q898.461 623.158 896.988 624.041Q895.514 624.924 893.998 625.734Q892.483 626.545 890.929 627.279Q889.376 628.014 887.788 628.672Q886.201 629.329 884.583 629.908Q882.965 630.487 881.321 630.986Q879.676 631.485 878.009 631.902Q876.342 632.32 874.657 632.655Q872.972 632.99 871.272 633.242Q869.572 633.494 867.862 633.663Q866.152 633.831 864.436 633.916Q862.719 634 861.001 634L69.999 634Q68.2806 634 66.5643 633.916Q64.848 633.831 63.1379 633.663Q61.4278 633.494 59.728 633.242Q58.0282 632.99 56.3429 632.655Q54.6575 632.32 52.9906 631.902Q51.3237 631.485 49.6794 630.986Q48.035 630.487 46.417 629.908Q44.7991 629.329 43.2115 628.672Q41.624 628.014 40.0706 627.279Q38.5172 626.545 37.0017 625.735Q35.4862 624.924 34.0123 624.041Q32.5384 623.158 31.1096 622.203Q29.6809 621.248 28.3006 620.225Q26.9204 619.201 25.5921 618.111Q24.2638 617.021 22.9905 615.867Q21.7173 614.713 20.5022 613.498Q19.2872 612.283 18.1332 611.009Q16.9792 609.736 15.889 608.408Q14.7989 607.079 13.7753 605.699Q12.7516 604.319 11.797 602.89Q10.8423 601.461 9.95885 599.988Q9.07543 598.514 8.26539 596.998Q7.45535 595.483 6.72065 593.929Q5.98595 592.376 5.32836 590.788Q4.67076 589.201 4.09186 587.583Q3.51295 585.965 3.01413 584.321Q2.51531 582.676 2.09778 581.009Q1.68025 579.342 1.34501 577.657Q1.00977 575.972 0.757633 574.272Q0.505495 572.572 0.337064 570.862Q0.168634 569.152 0.0843168 567.436Q0 565.719 0 564.001L0 366.799Q0 365.081 0.0843168 363.364Q0.168634 361.648 0.337064 359.938Q0.505495 358.228 0.757633 356.528Q1.00977 354.828 1.34501 353.143Q1.68025 351.457 2.09778 349.791Q2.51531 348.124 3.01413 346.479Q3.51295 344.835 4.09186 343.217Q4.67076 341.599 5.32836 340.011Q5.98595 338.424 6.72065 336.871Q7.45535 335.317 8.26539 333.802Q9.07543 332.286 9.95885 330.812Q10.8423 329.338 11.797 327.91Q12.7516 326.481 13.7753 325.101Q14.7989 323.72 15.889 322.392Q16.9792 321.064 18.1332 319.79Q19.2872 318.517 20.5022 317.302Q21.7173 316.087 22.9905 314.933Q24.2638 313.779 25.5921 312.689Q26.9204 311.599 28.3006 310.575Q29.6809 309.552 31.1096 308.597Q32.5384 307.642 34.0123 306.759Q35.4862 305.875 37.0017 305.065Q38.5172 304.255 40.0706 303.521Q41.624 302.786 43.2115 302.128Q44.7991 301.471 46.417 300.892Q48.035 300.313 49.6794 299.814Q51.3237 299.315 52.9906 298.898Q54.6575 298.48 56.3429 298.145Q58.0282 297.81 59.728 297.558Q61.4278 297.305 63.1379 297.137Q64.848 296.969 66.5643 296.884Q68.2806 296.8 69.999 296.8L69.999 296.8Z" id="Rectangle-4" fill="#8FDE6E" fill-rule="evenodd" stroke="none" />
      <path d="M364.999 0L564.001 0Q565.719 0 567.436 0.0843168Q569.152 0.168634 570.862 0.337064Q572.572 0.505495 574.272 0.757633Q575.972 1.00977 577.657 1.34501Q579.342 1.68025 581.009 2.09778Q582.676 2.51531 584.321 3.01413Q585.965 3.51295 587.583 4.09186Q589.201 4.67076 590.788 5.32836Q592.376 5.98595 593.929 6.72065Q595.483 7.45535 596.998 8.26539Q598.514 9.07543 599.988 9.95885Q601.461 10.8423 602.89 11.797Q604.319 12.7516 605.699 13.7753Q607.079 14.7989 608.408 15.889Q609.736 16.9792 611.009 18.1332Q612.283 19.2872 613.498 20.5022Q614.713 21.7173 615.867 22.9905Q617.021 24.2638 618.111 25.5921Q619.201 26.9204 620.225 28.3006Q621.248 29.6809 622.203 31.1096Q623.158 32.5384 624.041 34.0123Q624.924 35.4862 625.734 37.0017Q626.545 38.5172 627.279 40.0706Q628.014 41.624 628.672 43.2115Q629.329 44.7991 629.908 46.417Q630.487 48.035 630.986 49.6794Q631.485 51.3237 631.902 52.9906Q632.32 54.6575 632.655 56.3429Q632.99 58.0282 633.242 59.728Q633.494 61.4278 633.663 63.1379Q633.831 64.848 633.916 66.5643Q634 68.2806 634 69.999L634 860.001Q634 861.719 633.916 863.436Q633.831 865.152 633.663 866.862Q633.494 868.572 633.242 870.272Q632.99 871.972 632.655 873.657Q632.32 875.342 631.902 877.009Q631.485 878.676 630.986 880.321Q630.487 881.965 629.908 883.583Q629.329 885.201 628.672 886.788Q628.014 888.376 627.279 889.929Q626.545 891.483 625.735 892.998Q624.924 894.514 624.041 895.988Q623.158 897.461 622.203 898.89Q621.248 900.319 620.225 901.699Q619.201 903.08 618.111 904.408Q617.021 905.736 615.867 907.009Q614.713 908.283 613.498 909.498Q612.283 910.713 611.009 911.867Q609.736 913.021 608.408 914.111Q607.079 915.201 605.699 916.225Q604.319 917.248 602.89 918.203Q601.461 919.158 599.988 920.041Q598.514 920.924 596.998 921.735Q595.483 922.545 593.929 923.279Q592.376 924.014 590.788 924.672Q589.201 925.329 587.583 925.908Q585.965 926.487 584.321 926.986Q582.676 927.485 581.009 927.902Q579.342 928.32 577.657 928.655Q575.972 928.99 574.272 929.242Q572.572 929.494 570.862 929.663Q569.152 929.831 567.436 929.916Q565.719 930 564.001 930L364.999 930Q363.281 930 361.564 929.916Q359.848 929.831 358.138 929.663Q356.428 929.494 354.728 929.242Q353.028 928.99 351.343 928.655Q349.657 928.32 347.991 927.902Q346.324 927.485 344.679 926.986Q343.035 926.487 341.417 925.908Q339.799 925.329 338.211 924.672Q336.624 924.014 335.07 923.279Q333.517 922.545 332.002 921.735Q330.486 920.924 329.012 920.041Q327.538 919.158 326.11 918.203Q324.681 917.248 323.301 916.225Q321.92 915.201 320.592 914.111Q319.264 913.021 317.991 911.867Q316.717 910.713 315.502 909.498Q314.287 908.283 313.133 907.009Q311.979 905.736 310.889 904.408Q309.799 903.08 308.775 901.699Q307.752 900.319 306.797 898.89Q305.842 897.461 304.959 895.988Q304.075 894.514 303.265 892.998Q302.455 891.483 301.721 889.929Q300.986 888.376 300.328 886.788Q299.671 885.201 299.092 883.583Q298.513 881.965 298.014 880.321Q297.515 878.676 297.098 877.009Q296.68 875.342 296.345 873.657Q296.01 871.972 295.758 870.272Q295.505 868.572 295.337 866.862Q295.169 865.152 295.084 863.436Q295 861.719 295 860.001L295 69.999Q295 68.2806 295.084 66.5643Q295.169 64.848 295.337 63.1379Q295.505 61.4278 295.758 59.728Q296.01 58.0282 296.345 56.3429Q296.68 54.6575 297.098 52.9906Q297.515 51.3237 298.014 49.6794Q298.513 48.035 299.092 46.417Q299.671 44.7991 300.328 43.2115Q300.986 41.624 301.721 40.0706Q302.455 38.5172 303.265 37.0017Q304.075 35.4862 304.959 34.0123Q305.842 32.5384 306.797 31.1096Q307.752 29.6809 308.775 28.3006Q309.799 26.9204 310.889 25.5921Q311.979 24.2638 313.133 22.9905Q314.287 21.7173 315.502 20.5022Q316.717 19.2872 317.991 18.1332Q319.264 16.9792 320.592 15.889Q321.92 14.7989 323.301 13.7753Q324.681 12.7516 326.11 11.797Q327.538 10.8423 329.012 9.95885Q330.486 9.07543 332.002 8.26539Q333.517 7.45535 335.07 6.72065Q336.624 5.98595 338.211 5.32836Q339.799 4.67076 341.417 4.09186Q343.035 3.51295 344.679 3.01413Q346.324 2.51531 347.991 2.09778Q349.657 1.68025 351.343 1.34501Q353.028 1.00977 354.728 0.757633Q356.428 0.505495 358.138 0.337064Q359.848 0.168634 361.564 0.0843168Q363.281 0 364.999 0Z" id="Rectangle-3" fill="#8FDE6E" fill-rule="evenodd" stroke="none" />
      <path d="M364.999 296.815L861.001 296.815Q862.719 296.815 864.436 296.9Q866.152 296.984 867.862 297.153Q869.572 297.321 871.272 297.573Q872.972 297.825 874.657 298.16Q876.342 298.496 878.009 298.913Q879.676 299.331 881.321 299.83Q882.965 300.328 884.583 300.907Q886.201 301.486 887.788 302.144Q889.376 302.801 890.929 303.536Q892.483 304.271 893.998 305.081Q895.514 305.891 896.988 306.774Q898.461 307.658 899.89 308.612Q901.319 309.567 902.699 310.591Q904.08 311.614 905.408 312.705Q906.736 313.795 908.009 314.949Q909.283 316.103 910.498 317.318Q911.713 318.533 912.867 319.806Q914.021 321.079 915.111 322.408Q916.201 323.736 917.225 325.116Q918.248 326.496 919.203 327.925Q920.158 329.354 921.041 330.828Q921.925 332.302 922.735 333.817Q923.545 335.333 924.279 336.886Q925.014 338.439 925.672 340.027Q926.329 341.615 926.908 343.232Q927.487 344.85 927.986 346.495Q928.485 348.139 928.902 349.806Q929.32 351.473 929.655 353.158Q929.99 354.844 930.242 356.543Q930.495 358.243 930.663 359.953Q930.831 361.663 930.916 363.38Q931 365.096 931 366.814L931 564.817Q931 566.535 930.916 568.251Q930.831 569.967 930.663 571.678Q930.495 573.388 930.242 575.087Q929.99 576.787 929.655 578.473Q929.32 580.158 928.902 581.825Q928.485 583.492 927.986 585.136Q927.487 586.781 926.908 588.398Q926.329 590.016 925.672 591.604Q925.014 593.191 924.279 594.745Q923.545 596.298 922.735 597.814Q921.924 599.329 921.041 600.803Q920.158 602.277 919.203 603.706Q918.248 605.135 917.225 606.515Q916.201 607.895 915.111 609.223Q914.021 610.552 912.867 611.825Q911.713 613.098 910.498 614.313Q909.283 615.528 908.009 616.682Q906.736 617.836 905.408 618.926Q904.08 620.016 902.699 621.04Q901.319 622.064 899.89 623.018Q898.461 623.973 896.988 624.857Q895.514 625.74 893.998 626.55Q892.483 627.36 890.929 628.095Q889.376 628.829 887.788 629.487Q886.201 630.145 884.583 630.724Q882.965 631.302 881.321 631.801Q879.676 632.3 878.009 632.718Q876.342 633.135 874.657 633.47Q872.972 633.806 871.272 634.058Q869.572 634.31 867.862 634.478Q866.152 634.647 864.436 634.731Q862.719 634.815 861.001 634.815L434.309 634.815L328.355 729.886Q328.088 730.127 327.811 730.357Q327.535 730.587 327.251 730.808Q326.966 731.028 326.674 731.238Q326.382 731.448 326.083 731.648Q325.784 731.847 325.477 732.035Q325.171 732.224 324.858 732.401Q324.545 732.579 324.226 732.745Q323.906 732.911 323.582 733.065Q323.257 733.219 322.926 733.362Q322.596 733.504 322.261 733.635Q321.926 733.766 321.586 733.884Q321.246 734.003 320.903 734.109Q320.559 734.215 320.212 734.309Q319.865 734.403 319.514 734.484Q319.164 734.565 318.81 734.634Q318.457 734.702 318.102 734.758Q317.747 734.814 317.389 734.857Q317.032 734.9 316.674 734.93Q316.315 734.96 315.956 734.977Q315.597 734.994 315.237 734.999Q314.877 735.003 314.518 734.994Q314.158 734.986 313.799 734.964Q313.44 734.943 313.082 734.908Q312.724 734.874 312.367 734.826Q312.011 734.779 311.656 734.719Q311.301 734.659 310.949 734.586Q310.597 734.513 310.247 734.427Q309.898 734.342 309.552 734.244Q309.206 734.146 308.863 734.036Q308.521 733.925 308.183 733.803Q307.845 733.68 307.511 733.545Q307.177 733.411 306.849 733.264Q306.52 733.117 306.197 732.959Q305.874 732.801 305.557 732.631Q305.24 732.461 304.929 732.28Q304.619 732.099 304.315 731.907Q304.01 731.715 303.713 731.512Q303.416 731.309 303.127 731.095Q302.837 730.881 302.556 730.658Q302.274 730.434 302.001 730.2Q301.727 729.966 301.463 729.723Q301.198 729.479 300.942 729.227Q300.686 728.974 300.44 728.712Q300.193 728.45 299.956 728.179Q299.719 727.909 299.492 727.63Q299.265 727.351 299.048 727.064Q298.831 726.777 298.624 726.482Q298.418 726.188 298.222 725.886Q298.026 725.584 297.841 725.276Q297.656 724.967 297.483 724.652Q297.309 724.337 297.147 724.016Q296.985 723.695 296.834 723.368Q296.684 723.041 296.545 722.709Q296.407 722.377 296.28 722.041Q296.153 721.704 296.039 721.363Q295.924 721.022 295.822 720.677Q295.72 720.332 295.631 719.984Q295.541 719.635 295.464 719.284Q295.387 718.932 295.323 718.579Q295.258 718.225 295.207 717.869Q295.155 717.513 295.116 717.155Q295.078 716.797 295.052 716.439Q295.026 716.08 295.013 715.72Q295 715.361 295 715.001L295 366.814Q295 365.096 295.084 363.38Q295.169 361.663 295.337 359.953Q295.505 358.243 295.758 356.543Q296.01 354.844 296.345 353.158Q296.68 351.473 297.098 349.806Q297.515 348.139 298.014 346.495Q298.513 344.85 299.092 343.232Q299.671 341.615 300.328 340.027Q300.986 338.439 301.721 336.886Q302.455 335.333 303.265 333.817Q304.075 332.302 304.959 330.828Q305.842 329.354 306.797 327.925Q307.752 326.496 308.775 325.116Q309.799 323.736 310.889 322.408Q311.979 321.079 313.133 319.806Q314.287 318.533 315.502 317.318Q316.717 316.103 317.991 314.949Q319.264 313.795 320.592 312.704Q321.92 311.614 323.301 310.591Q324.681 309.567 326.11 308.612Q327.538 307.658 329.012 306.774Q330.486 305.891 332.002 305.081Q333.517 304.271 335.07 303.536Q336.624 302.801 338.211 302.144Q339.799 301.486 341.417 300.907Q343.035 300.328 344.679 299.83Q346.324 299.331 347.991 298.913Q349.657 298.496 351.343 298.16Q353.028 297.825 354.728 297.573Q356.428 297.321 358.138 297.153Q359.848 296.984 361.564 296.9Q363.281 296.815 364.999 296.815ZM470 430.815C452.327 430.815 438 445.142 438 462.815C438 480.489 452.327 494.815 470 494.815C487.673 494.815 502 480.489 502 462.815C502 445.142 487.673 430.815 470 430.815ZM582 462.815C582 445.142 596.327 430.815 614 430.815C631.673 430.815 646 445.142 646 462.815C646 480.489 631.673 494.815 614 494.815C596.327 494.815 582 480.489 582 462.815ZM756 430.815C738.327 430.815 724 445.142 724 462.815C724 480.489 738.327 494.815 756 494.815C773.673 494.815 788 480.489 788 462.815C788 445.142 773.673 430.815 756 430.815Z" id="Group-Difference-Difference-Difference" fill="#373435" fill-rule="evenodd" stroke="none" />
    </g>
    <g id="MED-BLOC" transform="translate(0 963.9999)">
      <g id="MED-" fill="#8FDE6E">
        <path d="M5.35938 183.619L5.35938 161.129L22.5859 161.129L22.5859 72.9863L5.35938 72.9863L5.35938 50.4961L72.1317 50.4961L101.339 128.478L130.721 50.4961L198.775 50.4961L198.775 72.9863L181.549 72.9863L181.549 161.129L198.775 161.129L198.775 183.619L131.783 183.619L131.783 161.129L147.861 161.129L147.861 72.9863L144.703 72.9863L103.455 183.619L89.0996 183.619L47.373 72.9863L44.2148 72.9863L44.2148 161.129L61.6328 161.129L61.6328 183.619L5.35938 183.619ZM230.738 183.619L230.738 161.129L246.721 161.129L246.721 72.9863L230.738 72.9863L230.738 50.4961L348.07 50.4961L348.07 92.7012L322.613 92.7012L322.613 72.9863L281.365 72.9863L281.365 103.707L314.67 103.707L314.67 126.197L281.365 126.197L281.365 161.129L322.613 161.129L322.613 141.223L348.07 141.223L348.07 183.619L230.738 183.619ZM379.555 161.129L379.555 183.619L446.738 183.619Q463.678 183.619 471.765 182.279Q479.852 180.939 489.518 176.394Q499.184 171.848 506.122 164.144Q513.061 156.439 517.75 143.854Q522.439 131.27 522.439 117.393Q522.439 100.262 515.74 86.1934Q509.041 72.125 497.939 63.751Q486.838 55.377 474.684 52.9365Q462.529 50.4961 442.623 50.4961L379.555 50.4961L379.555 72.9863L399.748 72.9863L399.748 161.129L379.555 161.129ZM442.623 161.129L434.297 161.129L434.297 72.9863L442.623 72.9863Q456.883 72.9863 466.118 77.0059Q475.354 81.0254 480.761 91.6484Q486.168 102.271 486.168 117.488Q486.168 133.471 480.809 143.376Q475.449 153.281 466.597 157.205Q457.744 161.129 442.623 161.129Z" />
      </g>
      <g id="BLOC" fill="#373435">
        <path d="M988.221 48.3906Q1022.67 48.3906 1042.44 68.2969Q1062.2 88.2031 1062.2 116.818Q1062.2 145.529 1042.39 165.388Q1022.58 185.246 988.221 185.246Q952.523 185.246 933.383 164.813Q914.242 144.381 914.242 116.818Q914.242 88.2988 933.909 68.3447Q953.576 48.3906 988.221 48.3906ZM1234.18 50.4961L1211.69 50.4961L1211.69 60.832Q1195.61 48.3906 1171.78 48.3906Q1152.64 48.3906 1136.61 56.3818Q1120.58 64.373 1111.1 80.1641Q1101.63 95.9551 1101.63 117.01Q1101.63 146.582 1119.86 165.914Q1138.09 185.246 1173.98 185.246Q1224.8 185.246 1239.73 138.878L1213.5 126.389Q1209.96 142.563 1199.91 151.654Q1189.87 160.746 1176.47 160.746Q1160.1 160.746 1149.53 148.735Q1138.95 136.725 1138.95 117.297Q1138.95 98.7305 1148.95 85.4277Q1158.95 72.125 1178.48 72.125Q1202.12 72.125 1211.69 97.3906L1234.18 97.3906L1234.18 50.4961ZM607.613 161.129L607.613 183.619L668.385 183.619Q689.535 183.619 701.259 180.222Q712.982 176.824 720.399 167.397Q727.816 157.971 727.816 144.764Q727.816 121.795 703.891 112.895Q722.648 104.855 722.648 85.4277Q722.648 73.2734 715.471 64.2295Q708.293 55.1855 698.436 52.8408Q688.578 50.4961 668.385 50.4961L607.613 50.4961L607.613 72.9863L623.979 72.9863L623.979 161.129L607.613 161.129ZM763.416 161.129L763.416 183.619L882.375 183.619L882.375 119.977L856.439 119.977L856.439 161.129L817.105 161.129L817.105 72.9863L836.533 72.9863L836.533 50.4961L763.416 50.4961L763.416 72.9863L782.461 72.9863L782.461 161.129L763.416 161.129ZM988.221 72.6992Q972.908 72.6992 962.237 84.1836Q951.566 95.668 951.566 117.871Q951.566 137.49 962.094 149.262Q972.621 161.033 988.221 161.033Q1003.53 161.033 1014.25 149.501Q1024.97 137.969 1024.97 116.244Q1024.97 96.8164 1014.73 84.7578Q1004.49 72.6992 988.221 72.6992ZM668.385 103.037L658.623 103.037L658.623 72.9863L667.236 72.9863Q678.816 72.9863 683.458 76.2402Q688.1 79.4942 688.1 87.4375Q688.1 96.1465 683.314 99.5918Q678.529 103.037 668.385 103.037ZM668.385 161.129L658.623 161.129L658.623 125.527L668.385 125.527Q680.826 125.527 686.521 129.595Q692.215 133.662 692.215 143.807Q692.215 153.473 686.951 157.301Q681.688 161.129 668.385 161.129Z" />
      </g>
    </g>
    <g id="By-Medical-County" transform="translate(346 1208.9999)">
      <g id="BY-MEDICAL-">
        <path d="M249.156 57.2891Q256.074 57.2891 260.367 55.2109L260.367 47.1445Q256.074 49.6602 250.906 49.6602Q245.492 49.6602 242.293 46.2832Q239.094 42.9063 239.094 37.2188Q239.094 31.2852 242.484 27.8125Q245.875 24.3398 251.398 24.3398Q256.43 24.3398 260.367 26.6914L260.367 18.1875Q256.43 16.7383 250.688 16.7383Q241.418 16.7383 235.607 22.5898Q229.797 28.4414 229.797 37.8477Q229.797 46.6797 234.965 51.9844Q240.133 57.2891 249.156 57.2891ZM4.48438 56.6055L4.48438 17.3945L18.7578 17.3945Q25.3203 17.3945 28.8477 19.8008Q32.375 22.207 32.375 26.582Q32.375 29.7539 30.2285 32.1328Q28.082 34.5117 24.7461 35.4414L24.7461 35.5508Q28.9297 36.0703 31.4316 38.6406Q33.9336 41.2109 33.9336 44.9023Q33.9336 50.2891 30.0781 53.4473Q26.2227 56.6055 19.5508 56.6055L4.48438 56.6055ZM69.9453 17.3945L57.1758 42.6602L57.1758 56.6055L48.3438 56.6055L48.3438 42.8242L35.9023 17.3945L45.9922 17.3945L52.3086 32.0234Q52.4727 32.4336 53.2109 35.2227L53.3203 35.2227Q53.6758 33.2539 54.168 32.1328L60.5938 17.3945L69.9453 17.3945ZM125.781 56.6055L134.504 56.6055L134.504 17.3945L121.898 17.3945L113.887 40.582Q113.066 42.9883 112.328 46.2422L112.164 46.2422Q111.727 43.4258 110.77 40.6367L102.758 17.3945L89.8242 17.3945L89.8242 56.6055L97.7813 56.6055L97.7813 34.9219Q97.7813 30.5469 97.4258 24.75L97.6719 24.75Q98.5195 29.1523 98.9023 30.2188L108.254 56.6055L115.473 56.6055L124.66 29.9453Q125.207 28.3594 125.891 24.75L126.109 24.75Q125.781 29.3438 125.781 33.1445L125.781 56.6055ZM166.934 56.6055L143.418 56.6055L143.418 17.3945L166.031 17.3945L166.031 24.5859L152.25 24.5859L152.25 33.3086L165.074 33.3086L165.074 40.4727L152.25 40.4727L152.25 49.4414L166.934 49.4414L166.934 56.6055ZM173.223 17.3945L173.223 56.6055L187.113 56.6055Q196.602 56.6055 202.303 51.1367Q208.004 45.668 208.004 36.5078Q208.004 17.3945 187.113 17.3945L173.223 17.3945ZM223.344 56.6055L214.512 56.6055L214.512 17.3945L223.344 17.3945L223.344 56.6055ZM301.684 56.6055L292.059 56.6055L289.27 47.8828L275.324 47.8828L272.563 56.6055L262.992 56.6055L277.266 17.3945L287.738 17.3945L301.684 56.6055ZM306.578 56.6055L329.93 56.6055L329.93 49.4414L315.41 49.4414L315.41 17.3945L306.578 17.3945L306.578 56.6055ZM13.3164 23.9023L13.3164 33.1992L17.1992 33.1992Q19.9336 33.1992 21.5059 31.873Q23.0781 30.5469 23.0781 28.2227Q23.0781 23.9023 16.625 23.9023L13.3164 23.9023ZM287.246 41.1016L283.035 27.9219Q282.57 26.4453 282.379 24.3945L282.16 24.3945Q282.023 26.1172 281.477 27.8125L277.211 41.1016L287.246 41.1016ZM182.055 49.4414L182.055 24.5859L186.375 24.5859Q192.227 24.5859 195.467 27.7988Q198.707 31.0117 198.707 36.6172Q198.707 42.5508 195.439 45.9961Q192.172 49.4414 186.43 49.4414L182.055 49.4414ZM13.3164 39.7617L13.3164 50.0977L18.1016 50.0977Q21.1641 50.0977 22.9004 48.6758Q24.6367 47.2539 24.6367 44.793Q24.6367 42.4414 22.9277 41.1016Q21.2188 39.7617 18.1563 39.7617L13.3164 39.7617Z" />
      </g>
      <g id="COUNTY" fill="#8FDE6E">
        <path d="M367.555 57.2891Q374.473 57.2891 378.766 55.2109L378.766 47.1445Q374.473 49.6602 369.305 49.6602Q363.891 49.6602 360.691 46.2832Q357.492 42.9063 357.492 37.2188Q357.492 31.2852 360.883 27.8125Q364.273 24.3398 369.797 24.3398Q374.828 24.3398 378.766 26.6914L378.766 18.1875Q374.828 16.7383 369.086 16.7383Q359.816 16.7383 354.006 22.5898Q348.195 28.4414 348.195 37.8477Q348.195 46.6797 353.363 51.9844Q358.531 57.2891 367.555 57.2891ZM388.445 51.8066Q393.75 57.2891 402.172 57.2891Q410.813 57.2891 416.186 51.6289Q421.559 45.9688 421.559 36.7266Q421.559 27.7305 416.377 22.2344Q411.195 16.7383 402.801 16.7383Q393.914 16.7383 388.527 22.4805Q383.141 28.2227 383.141 37.5195Q383.141 46.3242 388.445 51.8066ZM460.031 39.625Q460.031 57.2891 443.57 57.2891Q427.602 57.2891 427.602 40.0352L427.602 17.3945L436.461 17.3945L436.461 40.1445Q436.461 49.6602 443.898 49.6602Q451.199 49.6602 451.199 40.4727L451.199 17.3945L460.031 17.3945L460.031 39.625ZM494.922 56.6055L503.836 56.6055L503.836 17.3945L495.496 17.3945L495.496 39.0781Q495.496 43.0977 495.715 44.4648L495.605 44.4648Q494.703 42.8789 493.637 41.2656L478.078 17.3945L468.563 17.3945L468.563 56.6055L476.902 56.6055L476.902 35.0586Q476.902 30.793 476.684 28.7148L476.793 28.7148Q477.34 29.8086 478.762 31.9688L494.922 56.6055ZM540.34 24.5859L529.156 24.5859L529.156 56.6055L520.297 56.6055L520.297 24.5859L509.168 24.5859L509.168 17.3945L540.34 17.3945L540.34 24.5859ZM562.406 42.6602L575.176 17.3945L565.824 17.3945L559.398 32.1328Q558.906 33.2539 558.551 35.2227L558.441 35.2227Q557.703 32.4336 557.539 32.0234L551.223 17.3945L541.133 17.3945L553.574 42.8242L553.574 56.6055L562.406 56.6055L562.406 42.6602ZM395.172 27.8262Q397.906 24.3398 402.555 24.3398Q407.066 24.3398 409.664 27.7305Q412.262 31.1211 412.262 37.2188Q412.262 43.0703 409.582 46.3652Q406.902 49.6602 402.336 49.6602Q397.906 49.6602 395.172 46.2695Q392.438 42.8789 392.438 37.0547Q392.438 31.3125 395.172 27.8262Z" />
      </g>
    </g>
  </g>
</svg>